<svg xmlns="http://www.w3.org/2000/svg" width="840" height="220" viewBox="0 0 840 220" fill="none">
<defs>
 <linearGradient id="fill" x1="0" y1="0" x2="0" y2="1">
  <stop offset="0%" stop-color="#c8a06a" stop-opacity="0.42"/>
  <stop offset="100%" stop-color="#c8a06a" stop-opacity="0"/>
 </linearGradient>
</defs>
<text x="10" y="22" font-family="ui-sans-serif,-apple-system,Segoe UI,Helvetica,Arial,sans-serif" font-size="13" letter-spacing="0.5" fill="#9aa2b5">Contribution activity · past year</text>
<line x1="10" y1="150" x2="830" y2="150" stroke="#21262d" stroke-width="1"/>
<path d="M10.0,150 L10.0,150.0 L25.8,135.5 L41.5,146.3 L57.3,144.7 L73.1,150.0 L88.8,150.0 L104.6,150.0 L120.4,140.1 L136.2,143.5 L151.9,150.0 L167.7,150.0 L183.5,143.5 L199.2,150.0 L215.0,124.4 L230.8,120.1 L246.5,122.0 L262.3,134.6 L278.1,134.6 L293.8,128.2 L309.6,132.5 L325.4,137.1 L341.2,126.1 L356.9,143.5 L372.7,139.4 L388.5,140.1 L404.2,138.2 L420.0,138.2 L435.8,144.7 L451.5,126.7 L467.3,130.2 L483.1,114.6 L498.8,123.6 L514.6,123.3 L530.4,118.1 L546.2,105.2 L561.9,118.7 L577.7,40.0 L593.5,98.4 L609.2,119.9 L625.0,138.2 L640.8,140.8 L656.5,113.6 L672.3,98.9 L688.1,93.7 L703.8,80.2 L719.6,115.2 L735.4,109.1 L751.2,122.5 L766.9,109.6 L782.7,105.3 L798.5,108.7 L814.2,86.1 L830.0,150.0 L830.0,150 Z" fill="url(#fill)"/>
<path d="M10.0,150.0 L25.8,135.5 L41.5,146.3 L57.3,144.7 L73.1,150.0 L88.8,150.0 L104.6,150.0 L120.4,140.1 L136.2,143.5 L151.9,150.0 L167.7,150.0 L183.5,143.5 L199.2,150.0 L215.0,124.4 L230.8,120.1 L246.5,122.0 L262.3,134.6 L278.1,134.6 L293.8,128.2 L309.6,132.5 L325.4,137.1 L341.2,126.1 L356.9,143.5 L372.7,139.4 L388.5,140.1 L404.2,138.2 L420.0,138.2 L435.8,144.7 L451.5,126.7 L467.3,130.2 L483.1,114.6 L498.8,123.6 L514.6,123.3 L530.4,118.1 L546.2,105.2 L561.9,118.7 L577.7,40.0 L593.5,98.4 L609.2,119.9 L625.0,138.2 L640.8,140.8 L656.5,113.6 L672.3,98.9 L688.1,93.7 L703.8,80.2 L719.6,115.2 L735.4,109.1 L751.2,122.5 L766.9,109.6 L782.7,105.3 L798.5,108.7 L814.2,86.1 L830.0,150.0" fill="none" stroke="#c8a06a" stroke-width="2.2" stroke-linejoin="round" stroke-linecap="round"/>
<text x="150" y="188" text-anchor="middle" font-family="ui-sans-serif,-apple-system,Segoe UI,Helvetica,Arial,sans-serif" font-size="30" font-weight="700" fill="#eef1f8">3,859</text>
  <text x="150" y="207" text-anchor="middle" font-family="ui-sans-serif,-apple-system,Segoe UI,Helvetica,Arial,sans-serif" font-size="12.5" letter-spacing="0.4" fill="#9aa2b5">CONTRIBUTIONS</text>
<text x="420" y="188" text-anchor="middle" font-family="ui-sans-serif,-apple-system,Segoe UI,Helvetica,Arial,sans-serif" font-size="30" font-weight="700" fill="#eef1f8">14 days</text>
  <text x="420" y="207" text-anchor="middle" font-family="ui-sans-serif,-apple-system,Segoe UI,Helvetica,Arial,sans-serif" font-size="12.5" letter-spacing="0.4" fill="#9aa2b5">CURRENT STREAK</text>
<text x="690" y="188" text-anchor="middle" font-family="ui-sans-serif,-apple-system,Segoe UI,Helvetica,Arial,sans-serif" font-size="30" font-weight="700" fill="#eef1f8">23 days</text>
  <text x="690" y="207" text-anchor="middle" font-family="ui-sans-serif,-apple-system,Segoe UI,Helvetica,Arial,sans-serif" font-size="12.5" letter-spacing="0.4" fill="#9aa2b5">LONGEST STREAK</text>
<circle cx="830.0" cy="150.0" r="3" fill="#e8c285"/>
</svg>